<svg width="234" height="26" viewBox="0 0 234 26" fill="none" xmlns="http://www.w3.org/2000/svg">
<path d="M10.768 24.008C9.12533 24.008 7.65333 23.7413 6.352 23.208C5.05067 22.6747 4.00533 21.8853 3.216 20.84C2.448 19.7947 2.04267 18.536 2 17.064H7.824C7.90933 17.896 8.19733 18.536 8.688 18.984C9.17867 19.4107 9.81867 19.624 10.608 19.624C11.4187 19.624 12.0587 19.4427 12.528 19.08C12.9973 18.696 13.232 18.1733 13.232 17.512C13.232 16.9573 13.04 16.4987 12.656 16.136C12.2933 15.7733 11.8347 15.4747 11.28 15.24C10.7467 15.0053 9.97867 14.7387 8.976 14.44C7.52533 13.992 6.34133 13.544 5.424 13.096C4.50667 12.648 3.71733 11.9867 3.056 11.112C2.39467 10.2373 2.064 9.096 2.064 7.688C2.064 5.59733 2.82133 3.96533 4.336 2.792C5.85067 1.59733 7.824 1 10.256 1C12.7307 1 14.7253 1.59733 16.24 2.792C17.7547 3.96533 18.5653 5.608 18.672 7.72H12.752C12.7093 6.99467 12.4427 6.42933 11.952 6.024C11.4613 5.59733 10.832 5.384 10.064 5.384C9.40267 5.384 8.86933 5.56533 8.464 5.928C8.05867 6.26933 7.856 6.77067 7.856 7.432C7.856 8.15733 8.19733 8.72267 8.88 9.128C9.56267 9.53333 10.6293 9.97067 12.08 10.44C13.5307 10.9307 14.704 11.4 15.6 11.848C16.5173 12.296 17.3067 12.9467 17.968 13.8C18.6293 14.6533 18.96 15.752 18.96 17.096C18.96 18.376 18.6293 19.5387 17.968 20.584C17.328 21.6293 16.3893 22.4613 15.152 23.08C13.9147 23.6987 12.4533 24.008 10.768 24.008Z" fill="black"/>
<path d="M47.9595 5.928L43.1275 23.784H37.0795L34.2635 12.2L31.3515 23.784H25.3355L20.4715 5.928H25.9435L28.4715 18.696L31.4795 5.928H37.2715L40.3115 18.632L42.8075 5.928H47.9595Z" fill="black"/>
<path d="M66.8783 14.568C66.8783 15.08 66.8462 15.6133 66.7822 16.168H54.3983C54.4836 17.2773 54.8356 18.1307 55.4543 18.728C56.0943 19.304 56.8729 19.592 57.7902 19.592C59.1556 19.592 60.1049 19.016 60.6382 17.864H66.4622C66.1636 19.0373 65.6196 20.0933 64.8302 21.032C64.0622 21.9707 63.0916 22.7067 61.9183 23.24C60.7449 23.7733 59.4329 24.04 57.9823 24.04C56.2329 24.04 54.6756 23.6667 53.3102 22.92C51.9449 22.1733 50.8782 21.1067 50.1102 19.72C49.3422 18.3333 48.9582 16.712 48.9582 14.856C48.9582 13 49.3316 11.3787 50.0783 9.992C50.8463 8.60533 51.9129 7.53867 53.2783 6.792C54.6436 6.04533 56.2116 5.672 57.9823 5.672C59.7103 5.672 61.2463 6.03467 62.5903 6.76C63.9343 7.48533 64.9796 8.52 65.7262 9.864C66.4942 11.208 66.8783 12.776 66.8783 14.568ZM61.2783 13.128C61.2783 12.1893 60.9582 11.4427 60.3182 10.888C59.6782 10.3333 58.8783 10.056 57.9183 10.056C57.0009 10.056 56.2222 10.3227 55.5822 10.856C54.9636 11.3893 54.5796 12.1467 54.4303 13.128H61.2783Z" fill="black"/>
<path d="M86.597 14.568C86.597 15.08 86.565 15.6133 86.501 16.168H74.117C74.2023 17.2773 74.5543 18.1307 75.173 18.728C75.813 19.304 76.5917 19.592 77.509 19.592C78.8743 19.592 79.8237 19.016 80.357 17.864H86.181C85.8823 19.0373 85.3383 20.0933 84.549 21.032C83.781 21.9707 82.8103 22.7067 81.637 23.24C80.4637 23.7733 79.1517 24.04 77.701 24.04C75.9517 24.04 74.3943 23.6667 73.029 22.92C71.6637 22.1733 70.597 21.1067 69.829 19.72C69.061 18.3333 68.677 16.712 68.677 14.856C68.677 13 69.0503 11.3787 69.797 9.992C70.565 8.60533 71.6317 7.53867 72.997 6.792C74.3623 6.04533 75.9303 5.672 77.701 5.672C79.429 5.672 80.965 6.03467 82.309 6.76C83.653 7.48533 84.6983 8.52 85.445 9.864C86.213 11.208 86.597 12.776 86.597 14.568ZM80.997 13.128C80.997 12.1893 80.677 11.4427 80.037 10.888C79.397 10.3333 78.597 10.056 77.637 10.056C76.7197 10.056 75.941 10.3227 75.301 10.856C74.6823 11.3893 74.2983 12.1467 74.149 13.128H80.997Z" fill="black"/>
<path d="M99.4358 19.144V23.784H96.6517C94.6677 23.784 93.1211 23.304 92.0117 22.344C90.9024 21.3627 90.3477 19.7733 90.3477 17.576V10.472H88.1718V5.928H90.3477V1.576H95.8197V5.928H99.4037V10.472H95.8197V17.64C95.8197 18.1733 95.9478 18.5573 96.2038 18.792C96.4598 19.0267 96.8864 19.144 97.4837 19.144H99.4358Z" fill="black"/>
<path d="M109.748 24.04C108.19 24.04 106.804 23.7733 105.588 23.24C104.372 22.7067 103.412 21.9813 102.708 21.064C102.004 20.1253 101.609 19.08 101.524 17.928H106.932C106.996 18.5467 107.284 19.048 107.796 19.432C108.308 19.816 108.937 20.008 109.684 20.008C110.366 20.008 110.889 19.88 111.252 19.624C111.636 19.3467 111.828 18.9947 111.828 18.568C111.828 18.056 111.561 17.6827 111.028 17.448C110.494 17.192 109.63 16.9147 108.436 16.616C107.156 16.3173 106.089 16.008 105.236 15.688C104.382 15.3467 103.646 14.824 103.028 14.12C102.409 13.3947 102.1 12.424 102.1 11.208C102.1 10.184 102.377 9.256 102.932 8.424C103.508 7.57067 104.34 6.89867 105.428 6.408C106.537 5.91733 107.849 5.672 109.364 5.672C111.604 5.672 113.364 6.22667 114.644 7.336C115.945 8.44533 116.692 9.91733 116.884 11.752H111.828C111.742 11.1333 111.465 10.6427 110.996 10.28C110.548 9.91733 109.95 9.736 109.204 9.736C108.564 9.736 108.073 9.864 107.732 10.12C107.39 10.3547 107.22 10.6853 107.22 11.112C107.22 11.624 107.486 12.008 108.02 12.264C108.574 12.52 109.428 12.776 110.58 13.032C111.902 13.3733 112.98 13.7147 113.812 14.056C114.644 14.376 115.369 14.9093 115.988 15.656C116.628 16.3813 116.958 17.3627 116.98 18.6C116.98 19.6453 116.681 20.584 116.084 21.416C115.508 22.2267 114.665 22.8667 113.556 23.336C112.468 23.8053 111.198 24.04 109.748 24.04Z" fill="black"/>
<path d="M130.279 19.144V23.784H127.495C125.511 23.784 123.965 23.304 122.855 22.344C121.746 21.3627 121.191 19.7733 121.191 17.576V10.472H119.016V5.928H121.191V1.576H126.663V5.928H130.247V10.472H126.663V17.64C126.663 18.1733 126.792 18.5573 127.048 18.792C127.304 19.0267 127.73 19.144 128.327 19.144H130.279Z" fill="black"/>
<path d="M150.16 14.568C150.16 15.08 150.128 15.6133 150.064 16.168H137.68C137.765 17.2773 138.117 18.1307 138.736 18.728C139.376 19.304 140.154 19.592 141.072 19.592C142.437 19.592 143.386 19.016 143.919 17.864H149.743C149.445 19.0373 148.901 20.0933 148.111 21.032C147.343 21.9707 146.373 22.7067 145.199 23.24C144.026 23.7733 142.714 24.04 141.264 24.04C139.514 24.04 137.957 23.6667 136.592 22.92C135.226 22.1733 134.159 21.1067 133.391 19.72C132.623 18.3333 132.24 16.712 132.24 14.856C132.24 13 132.613 11.3787 133.359 9.992C134.127 8.60533 135.194 7.53867 136.559 6.792C137.925 6.04533 139.493 5.672 141.264 5.672C142.992 5.672 144.528 6.03467 145.872 6.76C147.216 7.48533 148.261 8.52 149.008 9.864C149.776 11.208 150.16 12.776 150.16 14.568ZM144.559 13.128C144.559 12.1893 144.24 11.4427 143.6 10.888C142.96 10.3333 142.159 10.056 141.199 10.056C140.282 10.056 139.503 10.3227 138.863 10.856C138.245 11.3893 137.861 12.1467 137.712 13.128H144.559Z" fill="black"/>
<path d="M158.518 8.904C159.158 7.92267 159.958 7.15467 160.918 6.6C161.878 6.024 162.945 5.736 164.118 5.736V11.528H162.614C161.249 11.528 160.225 11.8267 159.542 12.424C158.86 13 158.518 14.024 158.518 15.496V23.784H153.046V5.928H158.518V8.904Z" fill="black"/>
<path d="M173.998 24.04C172.44 24.04 171.054 23.7733 169.838 23.24C168.622 22.7067 167.662 21.9813 166.958 21.064C166.254 20.1253 165.859 19.08 165.774 17.928H171.182C171.246 18.5467 171.534 19.048 172.046 19.432C172.558 19.816 173.187 20.008 173.934 20.008C174.616 20.008 175.139 19.88 175.502 19.624C175.886 19.3467 176.078 18.9947 176.078 18.568C176.078 18.056 175.811 17.6827 175.278 17.448C174.744 17.192 173.88 16.9147 172.686 16.616C171.406 16.3173 170.339 16.008 169.486 15.688C168.632 15.3467 167.896 14.824 167.278 14.12C166.659 13.3947 166.35 12.424 166.35 11.208C166.35 10.184 166.627 9.256 167.182 8.424C167.758 7.57067 168.59 6.89867 169.678 6.408C170.787 5.91733 172.099 5.672 173.614 5.672C175.854 5.672 177.614 6.22667 178.894 7.336C180.195 8.44533 180.942 9.91733 181.134 11.752H176.078C175.992 11.1333 175.715 10.6427 175.246 10.28C174.798 9.91733 174.2 9.736 173.454 9.736C172.814 9.736 172.323 9.864 171.982 10.12C171.64 10.3547 171.47 10.6853 171.47 11.112C171.47 11.624 171.736 12.008 172.27 12.264C172.824 12.52 173.678 12.776 174.83 13.032C176.152 13.3733 177.23 13.7147 178.062 14.056C178.894 14.376 179.619 14.9093 180.238 15.656C180.878 16.3813 181.208 17.3627 181.23 18.6C181.23 19.6453 180.931 20.584 180.334 21.416C179.758 22.2267 178.915 22.8667 177.806 23.336C176.718 23.8053 175.448 24.04 173.998 24.04Z" fill="black"/>
</svg>
