<svg width="594" height="461" viewBox="0 0 594 461" fill="none" xmlns="http://www.w3.org/2000/svg">
<path d="M351.719 87.086C343.299 54.5765 319.52 24.6845 288.969 10.4315C265.313 -0.603995 237.641 -2.7685 212.556 4.4525C193.244 10.013 175.137 21.4205 164.217 38.2925C144.714 68.4275 160.293 101.359 169.403 132.131C174.684 149.974 177.44 169.793 169.785 186.755C153.783 222.208 107.235 228.938 84.4305 258.611C54.939 296.986 31.02 349.033 69.9525 390.91C106.515 430.238 162.531 417.097 198.138 384.56C225.357 359.687 263.796 341.942 301.269 347.931C337.956 353.795 365.634 381.326 394.301 402.592C435.281 432.989 495.399 420.591 528.371 384.131C562.617 346.26 566.598 266.889 523.885 233.336C505.735 219.078 483.886 217.107 462.031 213.347C431.392 208.074 380.913 196.214 364.902 166.376C352.059 142.444 358.305 114.107 352.089 88.568C351.971 88.073 351.846 87.5795 351.719 87.086Z" fill="#FCDDEC"/>
<path d="M591.551 414.776H559.634C561.944 413.505 563.528 411.078 563.528 408.255V352.99C563.528 348.863 560.183 345.518 556.056 345.518H515.916C511.79 345.518 508.445 342.173 508.445 338.046V294.446C508.445 290.319 505.1 286.974 500.973 286.974H481.067C476.94 286.974 473.595 290.319 473.595 294.446V312.62C473.595 316.746 470.25 320.091 466.124 320.091H429.264C425.138 320.091 421.793 323.436 421.793 327.563V408.255C421.793 411.078 423.377 413.505 425.687 414.776H417.896C420.206 413.505 421.79 411.078 421.79 408.255V366.437C421.79 362.31 418.445 358.965 414.318 358.965H381.945C377.819 358.965 374.474 355.62 374.474 351.494V307.541C374.474 303.414 371.129 300.07 367.002 300.07H325.425C321.299 300.07 317.954 303.414 317.954 307.541V323.105C317.954 327.231 314.609 330.576 310.482 330.576H302.414C298.287 330.576 294.942 333.922 294.942 338.048C294.942 342.175 291.597 345.519 287.471 345.519H247.331C243.204 345.519 239.859 342.175 239.859 338.048V294.447C239.859 290.321 236.514 286.976 232.388 286.976H212.481C208.355 286.976 205.01 290.321 205.01 294.447V312.621C205.01 316.748 201.665 320.093 197.538 320.093H160.677C156.551 320.093 153.206 323.438 153.206 327.564V408.257C153.206 411.08 154.79 413.507 157.1 414.777H149.307C151.617 413.507 153.201 411.08 153.201 408.257V366.439C153.201 362.312 149.856 358.967 145.73 358.967H113.355C109.229 358.967 105.884 355.622 105.884 351.495V307.542C105.884 303.416 102.539 300.071 98.4121 300.071H56.8441C52.7176 300.071 49.3726 303.416 49.3726 307.542V323.107C49.3726 327.233 46.0275 330.578 41.901 330.578H33.8325C29.706 330.578 26.361 333.923 26.361 338.049V408.257C26.361 411.08 27.945 413.507 30.255 414.777H2.44955C1.53604 414.777 0.795044 415.518 0.795044 416.432C0.795044 417.345 1.53604 418.088 2.44955 418.088H591.551C592.464 418.088 593.205 417.347 593.205 416.432C593.205 415.517 592.464 414.776 591.551 414.776Z" fill="#EDA7EE"/>
<path d="M399.842 139.772H525.563C525.381 132.314 526.326 125.544 519.579 120.774C514.283 117.032 506.972 115.764 503.123 121.767C497.592 114.143 495.473 104.156 486.836 98.4185C476.919 91.832 462.677 93.5435 456.165 103.689C453.422 101.115 452.066 96.9755 448.904 94.5635C442.917 89.999 433.986 91.9925 428.261 96.482C420.422 102.629 420.858 114.687 420.47 123.707C410.42 114.702 397.982 126.154 399.842 139.772Z" fill="#EDA7EE"/>
<path d="M5.34903 190.274H131.07C130.889 182.816 131.834 176.045 125.087 171.277C119.79 167.534 112.479 166.267 108.63 172.27C103.1 164.645 100.98 154.658 92.343 148.921C82.4265 142.334 68.184 144.044 61.6725 154.192C58.929 151.616 57.573 147.478 54.411 145.066C48.4245 140.501 39.4935 142.495 33.7695 146.984C25.9305 153.131 26.367 165.19 25.9785 174.209C15.9285 165.205 3.49053 176.656 5.34903 190.274Z" fill="#EDA7EE"/>
<path d="M372.915 74.1305C376.588 74.1305 379.565 71.1534 379.565 67.481C379.565 63.8086 376.588 60.8315 372.915 60.8315C369.243 60.8315 366.266 63.8086 366.266 67.481C366.266 71.1534 369.243 74.1305 372.915 74.1305Z" fill="#FCDDEC"/>
<path d="M107.063 112.798C114.589 112.798 120.69 106.696 120.69 99.17C120.69 91.6437 114.589 85.5425 107.063 85.5425C99.5363 85.5425 93.4351 91.6437 93.4351 99.17C93.4351 106.696 99.5363 112.798 107.063 112.798Z" fill="#FCDDEC"/>
<path d="M483.004 188.026C487.671 183.359 487.671 175.792 483.004 171.125C478.337 166.458 470.77 166.458 466.103 171.125C461.437 175.792 461.437 183.359 466.104 188.026C470.77 192.693 478.337 192.693 483.004 188.026Z" fill="#FCDDEC"/>
<path d="M225.845 44.096C229.517 44.096 232.494 41.1189 232.494 37.4465C232.494 33.7741 229.517 30.797 225.845 30.797C222.172 30.797 219.195 33.7741 219.195 37.4465C219.195 41.1189 222.172 44.096 225.845 44.096Z" fill="#E5E5FD"/>
<path d="M335.561 125.057C335.561 122.273 333.303 120.016 330.519 120.016C327.735 120.016 325.478 122.273 325.478 125.057C325.478 127.841 327.735 130.099 330.519 130.099C333.305 130.099 335.561 127.842 335.561 125.057Z" fill="#E5E5FD"/>
<path d="M201.872 147.455C201.872 144.671 199.614 142.414 196.83 142.414C194.046 142.414 191.789 144.671 191.789 147.455C191.789 150.239 194.046 152.497 196.83 152.497C199.614 152.497 201.872 150.239 201.872 147.455Z" fill="#E5E5FD"/>
<path d="M297 460.533C407.159 460.533 496.461 457.411 496.461 453.56C496.461 449.709 407.159 446.586 297 446.586C186.841 446.586 97.5391 449.709 97.5391 453.56C97.5391 457.411 186.841 460.533 297 460.533Z" fill="#B1B8CA"/>
<path d="M325.478 369.503L324.53 372.439L314.573 369.616L325.478 369.503Z" fill="#C62828"/>
<path d="M409.038 283.775L408.744 280.929L388.289 217.305L382.328 226.043C381.582 227.15 380.048 227.352 379.031 226.494C378.534 226.043 378.263 225.434 378.263 224.801C378.263 224.349 378.398 223.898 378.692 223.514L379.278 222.678C378.872 222.927 378.398 223.04 377.901 223.04C377.021 223.04 376.208 222.656 375.666 222.047C374.876 222.521 374.018 222.882 373.115 223.131L387.813 253.16C402.015 281.337 399.464 315.045 381.221 340.784L371.738 354.173C370.406 356.046 369.231 358.034 368.034 360.02C367.808 360.381 367.605 360.72 367.38 361.08C364.332 366.071 358.89 369.231 352.908 369.276L344.036 369.344L327.644 369.501H325.476L324.528 372.437L355.572 384.855C357.65 385.713 359.117 387.632 359.343 389.891C359.366 390.093 359.366 390.297 359.366 390.477C359.366 390.794 359.343 391.11 359.298 391.425L360.812 391.719C374.358 390.275 386.076 381.695 391.608 369.231L394.295 363.158L401.046 347.94L403.71 339.113C409.128 321.209 410.936 302.379 409.038 283.775Z" fill="#D659D9"/>
<path d="M427.191 293.416C425.724 293.054 424.46 292.151 423.602 290.932C415.181 278.762 409.04 265.148 405.494 250.789L397.365 217.939C394.182 214.823 392.217 210.511 392.217 205.747C392.217 201.998 393.414 198.568 395.468 195.745C395.468 195.745 378.309 196.423 373.094 206.198L374.064 205.882C376.616 205.046 379.415 205.657 381.38 207.485L387.882 213.604C388.92 214.574 389.079 216.133 388.289 217.307L408.744 280.931L409.038 283.777C410.934 302.381 409.128 321.211 403.71 339.115L401.046 347.942L394.296 363.16L391.61 369.233C386.078 381.697 374.36 390.275 360.813 391.719L359.3 391.426C358.961 393.616 357.449 395.489 355.281 396.235L348.215 398.651C341.645 400.909 334.691 401.902 327.737 401.609C326.901 401.564 326.088 401.519 325.253 401.429L287.909 398.132C285.696 397.93 283.823 396.598 282.851 394.723H282.849C282.353 393.775 282.104 392.69 282.173 391.562C282.896 379.28 287.885 368.51 287.885 368.51L289.985 370.52L291.768 366.637C287.997 365.395 284.363 363.791 280.886 361.805C267.701 354.265 260.792 340.763 260.792 327.102C260.792 322.316 261.627 317.507 263.366 312.968C265.443 307.481 268.785 302.357 273.458 298L296.285 276.686L239.727 277.906C239.727 277.906 234.015 278.492 227.964 278.041L162.489 281.54C162.105 281.562 161.721 281.608 161.36 281.653C155.738 282.511 151.47 287.365 151.47 293.167C151.47 293.167 138.059 296.915 122.594 309.581C119.501 312.132 116.318 315.022 113.133 318.319C108.504 323.128 103.877 328.817 99.5642 335.477C92.0912 346.993 85.5437 361.465 81.3887 379.549L89.1332 367.447C105.638 341.663 128.328 320.417 155.151 305.651C165.56 299.939 177.096 297.049 188.657 297.049C198.297 297.049 207.983 299.059 217.014 303.1C236.973 312.017 248.172 331.412 248.172 351.258C248.172 362.57 244.515 374.062 236.771 383.839L226.589 396.707L226.274 403.052L327.422 407.951L344.58 408.787C364.245 409.735 382.578 399.418 392.039 382.462C392.852 381.04 393.573 379.549 394.251 378.037L400.754 367.99C407.775 357.175 412.382 345.164 414.435 332.746C421.728 326.854 430.421 322.609 439.925 320.621V320.6C441.257 317.869 441.866 315.023 441.866 312.202C441.867 303.667 436.155 295.651 427.191 293.416Z" fill="#A41BE5"/>
<path d="M248.172 351.26C248.172 362.571 244.515 374.063 236.771 383.84L226.589 396.708L226.272 403.053L215.684 402.534C215.774 401.315 215.819 400.073 215.819 398.832C215.819 368.601 191.322 344.103 161.09 344.103C131.378 344.103 107.219 367.742 106.406 397.251L95.2067 396.71C86.1977 396.71 79.3802 388.356 81.3887 379.551L89.1332 367.449C105.638 341.666 128.328 320.42 155.151 305.654C165.56 299.942 177.096 297.051 188.657 297.051C198.297 297.051 207.983 299.061 217.014 303.102C236.973 312.02 248.172 331.415 248.172 351.26Z" fill="#D659D9"/>
<path d="M161.09 344.104C131.378 344.104 107.219 367.742 106.406 397.252L125.28 398.177L144.788 399.102L177.3 400.682L196.83 401.63L215.682 402.533C215.772 401.314 215.817 400.071 215.817 398.831C215.817 368.6 191.321 344.104 161.09 344.104Z" fill="#FF83C1"/>
<path d="M176.292 387.315C176.271 387.315 176.25 387.315 176.229 387.314L127.409 384.641C126.786 384.608 126.309 384.074 126.344 383.453C126.377 382.829 126.926 382.32 127.532 382.388L176.352 385.059C176.975 385.092 177.452 385.626 177.417 386.247C177.386 386.85 176.888 387.315 176.292 387.315Z" fill="white"/>
<path d="M180.774 382.832C180.753 382.832 180.732 382.832 180.711 382.83L131.891 380.159C131.268 380.126 130.791 379.592 130.826 378.971C130.859 378.347 131.402 377.844 132.014 377.906L180.834 380.577C181.457 380.61 181.934 381.144 181.899 381.765C181.868 382.367 181.37 382.832 180.774 382.832Z" fill="white"/>
<path d="M185.258 378.35C185.237 378.35 185.216 378.35 185.195 378.348L136.374 375.677C135.752 375.644 135.275 375.11 135.309 374.489C135.342 373.865 135.878 373.368 136.497 373.424L185.318 376.097C185.94 376.13 186.417 376.664 186.383 377.285C186.351 377.885 185.853 378.35 185.258 378.35Z" fill="white"/>
<path d="M189.471 374.135C189.452 374.135 189.432 374.135 189.41 374.133L140.589 371.463C139.967 371.43 139.49 370.896 139.524 370.275C139.557 369.651 140.096 369.154 140.712 369.211L189.533 371.881C190.155 371.914 190.632 372.447 190.598 373.068C190.565 373.67 190.067 374.135 189.471 374.135Z" fill="white"/>
<path d="M217.019 303.104C225.662 306.677 233.39 312.677 238.953 320.339C241.839 324.107 243.935 328.402 245.784 332.776C247.332 337.261 248.577 341.899 248.898 346.66C249.708 356.117 248.208 365.911 243.941 374.482C241.82 378.746 239.055 382.736 236.126 386.377L227.363 397.33L226.592 395.737C235.443 395.746 244.295 395.968 253.146 396.074C261.998 396.208 270.849 396.436 279.701 396.721C270.849 397.006 261.998 397.234 253.146 397.367C244.295 397.472 235.443 397.696 226.592 397.705C226.049 397.705 225.608 397.265 225.608 396.722C225.608 396.493 225.69 396.277 225.821 396.11L234.474 385.072C237.368 381.394 239.901 377.641 241.919 373.505C246.047 365.32 247.608 355.954 246.911 346.832C246.653 342.239 245.463 337.775 244.137 333.377C242.472 329.101 240.567 324.863 237.864 321.112C232.634 313.511 225.438 307.222 217.019 303.104Z" fill="#6D0944"/>
<path d="M296.285 276.686L273.458 297.999C268.784 302.357 265.442 307.483 263.366 312.968C239.049 305.789 227.964 278.04 227.964 278.04C234.015 278.492 239.727 277.906 239.727 277.906L296.285 276.686Z" fill="#D659D9"/>
<path d="M452.456 319.313C448.166 319.313 443.966 319.764 439.925 320.6V320.623C430.419 322.61 421.727 326.853 414.434 332.747C412.379 345.165 407.774 357.176 400.752 367.991L394.25 378.038C393.572 379.55 392.85 381.041 392.037 382.463C392.241 387.407 393.03 392.171 394.362 396.71L403.776 393.459L424.661 386.256L476.861 368.217L497.745 360.994L508.605 357.245C499.643 335.004 477.9 319.313 452.456 319.313Z" fill="#FF83C1"/>
<path d="M497.747 360.992C507.185 370.814 512.964 384.156 512.964 398.832C512.964 429.063 488.468 453.561 458.235 453.561C428.004 453.561 403.506 429.065 403.506 398.832C403.506 397.026 403.596 395.22 403.778 393.459L424.662 386.256C423.195 390.162 422.382 394.407 422.382 398.832C422.382 418.634 438.435 434.686 458.235 434.686C478.035 434.686 494.066 418.632 494.066 398.832C494.066 385.85 487.179 374.493 476.861 368.217L497.747 360.992Z" fill="#3F1085"/>
<path d="M476.862 368.216C487.181 374.492 494.067 385.848 494.067 398.831C494.067 418.632 478.037 434.684 458.237 434.684C438.437 434.684 422.384 418.631 422.384 398.831C422.384 394.406 423.197 390.161 424.664 386.255L476.862 368.216ZM474.56 398.831C474.56 389.822 467.244 382.506 458.237 382.506C449.205 382.506 441.912 389.822 441.912 398.831C441.912 407.84 449.205 415.154 458.237 415.154C467.244 415.155 474.56 407.84 474.56 398.831Z" fill="#E5E5FD"/>
<path d="M458.235 415.154C467.25 415.154 474.558 407.846 474.558 398.831C474.558 389.816 467.25 382.508 458.235 382.508C449.22 382.508 441.912 389.816 441.912 398.831C441.912 407.846 449.22 415.154 458.235 415.154Z" fill="#3A3635"/>
<path d="M458.235 415.154C467.25 415.154 474.558 407.846 474.558 398.831C474.558 389.816 467.25 382.508 458.235 382.508C449.22 382.508 441.912 389.816 441.912 398.831C441.912 407.846 449.22 415.154 458.235 415.154Z" fill="#3F1085"/>
<path d="M196.83 401.631L215.682 402.535C213.786 431.029 190.079 453.56 161.09 453.56C130.859 453.56 106.361 429.063 106.361 398.831C106.361 398.312 106.361 397.771 106.406 397.25L125.28 398.176C125.258 398.402 125.258 398.604 125.258 398.831C125.258 418.632 141.288 434.684 161.088 434.684C179.942 434.685 195.408 420.122 196.83 401.631Z" fill="#3F1085"/>
<path d="M177.3 400.683L196.83 401.631C195.408 420.122 179.942 434.685 161.09 434.685C141.29 434.685 125.259 418.632 125.259 398.832C125.259 398.606 125.259 398.404 125.282 398.177L144.789 399.102C144.924 407.999 152.172 415.156 161.09 415.156C169.488 415.156 176.397 408.81 177.3 400.683Z" fill="#E5E5FD"/>
<path d="M144.788 399.102L177.3 400.684C176.397 408.812 169.488 415.156 161.09 415.156C152.171 415.156 144.924 407.997 144.788 399.102Z" fill="#3F1085"/>
<path d="M421.953 188.745V222.725H413.532C414.774 207.62 413.51 188.745 413.51 188.745H421.953Z" fill="#FF83C1"/>
<path d="M397.365 217.938C394.182 214.823 392.217 210.51 392.217 205.746C392.217 201.998 393.414 198.567 395.469 195.744C395.988 195.021 396.552 194.345 397.185 193.712C400.278 190.641 404.523 188.745 409.197 188.745H413.51C413.51 188.745 414.774 207.62 413.532 222.725H409.197C404.613 222.725 400.436 220.896 397.365 217.938Z" fill="#A80F5C"/>
<path d="M202.068 274.269V279.425L161.642 281.619L159.894 281.975L135.486 274.269H202.068Z" fill="#3A3635"/>
<path d="M202.068 247.266V274.269H135.486H99.5642V198.431H202.068V247.266Z" fill="#E51B77"/>
<path d="M195.207 226.17H105.281V231.501H195.207V226.17Z" fill="#A80F5C"/>
<path d="M195.207 241.896H105.281V247.227H195.207V241.896Z" fill="#A80F5C"/>
<path d="M195.207 257.622H105.281V262.953H195.207V257.622Z" fill="#A80F5C"/>
<path d="M160.068 214.853H138.987C134.615 214.853 131.07 211.308 131.07 206.936V202.937H167.985V206.936C167.985 211.308 164.441 214.853 160.068 214.853Z" fill="#A80F5C"/>
<path d="M103.391 202.937C111.042 202.472 118.694 202.253 126.345 202.073C133.997 201.866 141.648 201.837 149.298 201.809C156.95 201.834 164.601 201.864 172.253 202.068L183.729 202.383C187.554 202.571 191.381 202.68 195.206 202.937C191.381 203.193 187.554 203.303 183.729 203.49L172.253 203.805C164.601 204.009 156.95 204.039 149.298 204.065C141.647 204.036 133.995 204.008 126.345 203.801C118.694 203.621 111.042 203.403 103.391 202.937Z" fill="#6D0944"/>
<path d="M356.184 275.895L360.813 334.869L351.239 337.307L334.667 341.507L356.184 275.895Z" fill="#2E0968"/>
<path d="M353.858 246.251L354.287 251.85C350.178 245.574 343.247 241.125 334.938 240.674L260.726 236.496L263.526 233.291C264.768 231.891 266.507 231.056 268.38 230.966L331.847 228.189L333.381 228.122C343.97 227.669 353.024 235.685 353.858 246.251Z" fill="#2E0968"/>
<path d="M351.239 337.307L355.19 354.535L351.441 361.082C349.838 363.905 346.926 365.395 343.991 365.395C341.891 365.395 339.791 364.649 338.121 363.07L333.786 359.006L331.913 349.907V349.885L334.667 341.508L351.239 337.307Z" fill="#D8667C"/>
<path d="M359.345 353.631C357.968 352.638 356.027 353.045 355.19 354.535L351.443 361.082C349.839 363.905 346.928 365.395 343.992 365.395C341.892 365.395 339.792 364.649 338.123 363.07L333.788 359.006L331.575 356.928L327.647 369.482V369.504L344.039 369.347L352.911 369.28C358.895 369.235 364.335 366.074 367.383 361.084C367.608 360.722 367.812 360.383 368.037 360.023L359.345 353.631Z" fill="#303D89"/>
<path d="M301.659 72.4025C301.772 75.608 302.517 81.14 305.927 85.5425C303.849 85.6325 301.547 86.129 299.876 87.281C298.928 87.935 298.047 88.793 297.008 89.291C294.164 90.713 291.228 89.426 288.383 89.72C287.345 89.8325 286.305 90.758 285.719 91.6835C285.606 91.8635 285.539 92.0225 285.47 92.2025L284.589 91.976L286.983 82.493C287.706 79.67 289.986 77.594 292.83 76.961C295.088 76.4435 298.091 75.179 301.659 72.4025Z" fill="#FD97A7"/>
<path d="M295.509 108.146C295.035 108.056 294.584 107.943 294.155 107.784C293.997 107.739 293.838 107.694 293.681 107.627C293.681 107.627 290.61 108.281 287.313 110.946C284.22 113.453 280.923 117.766 279.84 125.059L270.425 115.643C267.489 112.73 263.651 110.969 259.565 110.699V110.677L265.728 104.378C269.025 100.991 271.598 96.9725 273.291 92.5475L275.075 87.8285C275.775 88.3025 276.632 88.574 277.536 88.574C278.778 88.574 279.906 88.0775 280.697 87.242L279.5 90.155C278.936 91.5095 279.567 93.0905 280.922 93.677C281.261 93.812 281.622 93.881 281.984 93.881C283.091 93.881 284.129 93.2255 284.535 92.12L284.58 91.985L285.461 92.21C285.144 93.272 286.092 93.971 286.499 95.168C287.357 97.697 287.651 100.112 289.14 102.461C289.727 103.386 290.021 104.2 290.766 104.968C292.143 106.367 293.702 107.337 295.485 108.128L295.509 108.146Z" fill="#FD97A7"/>
<path d="M299.19 82.097C299.902 82.097 300.479 81.5201 300.479 80.8085C300.479 80.0969 299.902 79.52 299.19 79.52C298.479 79.52 297.902 80.0969 297.902 80.8085C297.902 81.5201 298.479 82.097 299.19 82.097Z" fill="#042128"/>
<path d="M300.693 76.196C300.134 76.73 299.628 77.0945 299.159 77.462C298.695 77.8295 298.214 78.08 297.834 78.4625C297.341 78.695 296.988 79.0715 296.526 79.394C296.045 79.715 295.629 80.129 294.969 80.57L294.845 80.5295C295.239 79.301 296.004 78.1655 297.066 77.399C298.14 76.6535 299.394 76.2095 300.683 76.0655L300.693 76.196Z" fill="#1C54D1"/>
<path d="M288.381 104.123C289.521 105.309 290.805 106.385 292.299 107.076C292.751 107.285 293.211 107.469 293.679 107.627C293.679 107.627 290.609 108.281 287.312 110.946C279.563 105.753 281.54 97.001 281.54 97.001L288.381 104.123Z" fill="#D8667C"/>
<path d="M301.704 69.7835C296.669 70.484 290.213 70.0085 281.994 67.481L251.741 87.824C251.741 87.824 251.154 101.889 265.739 104.373C265.748 104.364 265.755 104.356 265.764 104.347C269.352 105.604 273.182 102.412 273.689 98.945C273.942 97.2095 273.995 95.681 274.682 94.001C275.244 92.627 275.067 91.535 274.977 90.137C274.928 89.369 275.046 88.646 275.052 87.911L275.085 87.824C275.073 87.8165 275.063 87.806 275.052 87.7985C275.051 87.6995 275.057 87.602 275.051 87.503C274.925 87.4895 274.799 87.512 274.673 87.5135C273.711 86.7035 273.099 85.4915 273.099 84.122C273.099 81.6605 275.085 79.6745 277.547 79.6745C280.008 79.6745 281.994 81.662 281.994 84.122L280.707 87.2375L279.51 90.1505C278.946 91.505 279.578 93.086 280.932 93.6725C281.271 93.8075 281.633 93.875 281.994 93.875C283.101 93.875 284.139 93.221 284.546 92.114L284.591 91.979L286.983 82.496C287.706 79.673 289.986 77.597 292.83 76.964C295.088 76.445 298.091 75.1805 301.658 72.404C301.613 70.823 301.703 69.8075 301.703 69.8075V69.7835H301.704Z" fill="#1C54D1"/>
<path d="M296.736 57.569H318.659C318.659 57.569 315.498 67.955 301.703 69.7835C296.667 70.484 290.211 70.0085 281.993 67.481L296.736 57.569Z" fill="#FDBC0B"/>
<path d="M296.736 57.569L281.993 67.481L251.739 87.824L250.836 88.433C241.512 74.1635 244.605 64.253 248.804 58.472C251.265 55.0625 256.887 51.224 260.724 49.4855C288.203 37.001 296.736 57.569 296.736 57.569Z" fill="#F99410"/>
<path d="M263.849 50.9495C266.025 51.122 268.154 51.749 270.179 52.6055C272.21 53.462 274.097 54.6665 275.777 56.114C277.458 57.56 278.901 59.306 279.927 61.268C281.046 63.185 281.633 65.3465 281.994 67.4795C281.177 65.4605 280.409 63.458 279.183 61.7135C278.031 59.9405 276.653 58.3205 275.037 56.9645C271.862 54.176 267.99 52.226 263.849 50.9495Z" fill="#AF680B"/>
<path d="M307.016 86.807C307.78 87.614 308.047 88.781 307.004 89.1635L306.455 89.312C304.307 90.0995 302.879 92.1425 302.879 94.43V96.1985V104.123C302.879 106.508 300.947 108.463 298.562 108.458C297.556 108.457 296.549 108.344 295.541 108.142H295.518C293.735 107.329 292.154 106.358 290.777 104.959C290.031 104.191 289.739 103.378 289.151 102.452C287.661 100.105 287.367 97.688 286.509 95.159C286.103 93.962 285.155 93.263 285.471 92.201C285.539 92.021 285.606 91.862 285.72 91.682C286.307 90.7565 287.346 89.831 288.384 89.7185C291.23 89.4245 294.164 90.7115 297.009 89.2895C298.047 88.793 298.928 87.935 299.878 87.2795C301.549 86.1275 303.851 85.631 305.928 85.541C306.263 85.9775 306.626 86.396 307.016 86.807Z" fill="white"/>
<path d="M289.052 90.7475C288.981 90.7475 288.911 90.722 288.858 90.6695L281.157 83.327C281.045 83.2205 281.04 83.042 281.147 82.928C281.261 82.817 281.438 82.8095 281.546 82.919L289.247 90.2615C289.359 90.368 289.364 90.5465 289.257 90.6605C289.199 90.7175 289.125 90.7475 289.052 90.7475Z" fill="#424242"/>
<path d="M289.052 100.681C288.972 100.681 288.893 100.648 288.837 100.583L277.838 87.8585C277.736 87.74 277.749 87.563 277.866 87.461C277.983 87.359 278.162 87.371 278.265 87.491L289.265 100.216C289.367 100.334 289.353 100.511 289.236 100.613C289.184 100.657 289.118 100.681 289.052 100.681Z" fill="#424242"/>
<path d="M291.204 94.4915C292.251 94.664 293.304 94.679 294.345 94.643C295.386 94.592 296.424 94.496 297.44 94.2635C299.487 93.872 301.433 93.0965 303.359 92.204C302.499 92.825 301.592 93.401 300.608 93.824C299.639 94.2875 298.595 94.562 297.552 94.817C295.449 95.192 293.216 95.2415 291.204 94.4915Z" fill="#424242"/>
<path d="M290.685 97.8515C291.554 98.5445 292.488 99.131 293.445 99.662C294.404 100.187 295.394 100.657 296.43 100.991C298.475 101.764 300.659 102.027 302.879 102.081C301.784 102.254 300.656 102.361 299.537 102.233C298.413 102.152 297.311 101.876 296.243 101.522C294.134 100.751 292.143 99.548 290.685 97.8515Z" fill="#424242"/>
<path d="M281.993 84.1205L280.706 87.236C279.915 88.0715 278.787 88.568 277.545 88.568C276.642 88.568 275.784 88.2965 275.084 87.8225C273.887 87.032 273.096 85.6775 273.096 84.1205C273.096 81.659 275.084 79.673 277.544 79.673C280.007 79.6715 281.993 81.659 281.993 84.1205Z" fill="#D8667C"/>
<path d="M285.087 169.058L260.726 174.974L273.911 205.227C273.911 205.227 273.234 221.799 268.379 230.966C266.505 231.056 264.767 231.891 263.525 233.291L260.724 236.496C259.167 236.406 257.654 236.993 256.569 238.1L234.533 260.858C232.637 262.823 230.424 264.447 227.985 265.689L214.394 272.508L211.73 271.538C209.811 270.837 208.163 269.642 206.921 268.106C205.679 266.571 204.843 264.719 204.573 262.71C203.85 257.585 203.489 252.414 203.489 247.268C203.489 240.608 204.075 233.946 205.295 227.376L216.855 164.678C218.3 156.753 220.716 149.076 223.989 141.783C227.285 134.49 231.44 127.605 236.406 121.26C239.048 117.896 242.39 115.254 246.137 113.426C249.863 111.62 254.016 110.627 258.306 110.627C258.735 110.627 259.142 110.649 259.571 110.694C263.657 110.966 267.495 112.727 270.431 115.638L279.846 125.054C281.088 126.296 281.246 128.259 280.23 129.683L277.95 132.866L285.087 169.058Z" fill="#FDBC0B"/>
<path d="M239.102 137.73C239.952 141.029 240.764 144.335 241.502 147.654C242.22 150.978 243.029 154.284 243.672 157.623L245.693 167.621L247.533 177.653L246.624 177.059C250.179 176.255 253.763 175.571 257.34 174.866C260.915 174.143 264.512 173.523 268.115 172.934C264.611 173.963 261.101 174.965 257.567 175.862C254.037 176.777 250.512 177.714 246.959 178.53L246.204 178.704L246.05 177.938L244.046 167.937L242.222 157.902C241.583 154.563 241.11 151.193 240.546 147.839C240.003 144.482 239.534 141.11 239.102 137.73Z" fill="#A34A0D"/>
<path d="M225.185 239.162C227.666 237.933 230.106 236.645 232.445 235.182C234.821 233.792 237.123 232.283 239.355 230.684C243.819 227.493 248.061 223.997 251.828 220.037C255.735 216.2 258.903 211.706 261.674 207.012L263.607 203.394C264.186 202.157 264.63 200.859 265.158 199.593L265.953 197.688L266.516 195.707C266.879 194.379 267.264 193.053 267.666 191.721C266.882 197.183 265.475 202.679 262.823 207.631C260.225 212.576 256.946 217.197 253.047 221.213C249.093 225.165 244.775 228.752 240.083 231.761C235.385 234.746 230.432 237.356 225.185 239.162Z" fill="#A34A0D"/>
<path d="M215.028 249.675C218.715 249.281 222.357 248.741 225.966 248.046C229.571 247.337 233.148 246.528 236.666 245.51C240.201 244.553 243.671 243.368 247.092 242.049C250.545 240.786 253.833 239.15 257.204 237.582C254.199 239.751 251.004 241.71 247.605 243.246C244.245 244.872 240.714 246.126 237.123 247.139C233.528 248.135 229.869 248.915 226.164 249.327C222.47 249.764 218.735 249.98 215.028 249.675Z" fill="#A34A0D"/>
<path d="M261.627 115.874C263.609 116.348 265.487 117.243 267.209 118.353C268.935 119.462 270.528 120.789 271.937 122.289C273.306 123.819 274.601 125.435 275.573 127.244C276.122 128.109 276.503 129.068 276.941 129.986C277.32 130.933 277.649 131.9 277.952 132.864C276.944 131.096 275.955 129.356 274.811 127.722L273.959 126.498L273.036 125.328C272.439 124.536 271.761 123.809 271.097 123.078C269.757 121.617 268.263 120.31 266.696 119.089C265.11 117.89 263.45 116.765 261.627 115.874Z" fill="#A34A0D"/>
<path d="M219.383 154.169C219.591 157.103 219.873 160.015 220.229 162.917C220.604 165.817 220.982 168.713 221.495 171.587C221.975 174.467 222.534 177.334 223.154 180.19C223.746 183.055 224.504 185.879 225.185 188.744C224.625 187.385 224.085 186.014 223.598 184.623C223.14 183.225 222.683 181.823 222.291 180.403C221.462 177.572 220.865 174.68 220.356 171.778C219.869 168.871 219.515 165.938 219.348 162.996C219.264 161.525 219.215 160.052 219.194 158.58C219.224 157.107 219.231 155.635 219.383 154.169Z" fill="#A34A0D"/>
<path d="M354.287 251.85C350.177 245.574 343.247 241.125 334.938 240.674L260.726 236.496C259.167 236.406 257.655 236.993 256.571 238.1L234.534 260.858C232.638 262.823 230.426 264.447 227.987 265.689L214.395 272.508C216.044 276.257 222.162 277.634 227.964 278.04C234.015 278.492 239.727 277.905 239.727 277.905L296.285 276.686L317.349 276.234L291.182 362.978L293.192 363.542L314.528 369.593L314.573 369.615L325.478 369.503L331.913 349.905V349.883L334.667 341.507L356.183 275.895L357.086 273.119C359.571 265.554 358.215 257.856 354.287 251.85Z" fill="#591C9D"/>
<path d="M359.345 389.891C359.367 390.093 359.367 390.297 359.367 390.477C359.367 390.794 359.345 391.11 359.3 391.425C358.961 393.615 357.449 395.489 355.281 396.234L348.215 398.651C341.645 400.908 334.691 401.903 327.737 401.609C326.901 401.564 326.088 401.519 325.253 401.429L287.909 398.132C285.696 397.929 283.823 396.597 282.851 394.722C282.354 393.774 282.105 392.69 282.173 391.562C282.896 379.28 287.885 368.51 287.885 368.51L289.985 370.52L291.339 371.829C295.562 375.87 301.905 376.683 306.986 373.839L314.504 369.617H314.549H314.571L324.528 372.44L355.572 384.858C357.651 385.713 359.12 387.633 359.345 389.891Z" fill="#4E58AF"/>
<path d="M293.192 363.542L291.77 366.635L289.986 370.518L291.341 371.828C295.563 375.869 301.907 376.682 306.987 373.838L314.505 369.615L314.528 369.593L293.192 363.542Z" fill="#FD97A7"/>
<path d="M357.227 391.719C355.823 392.388 354.3 392.762 352.821 393.224L348.344 394.51L339.339 396.885C336.293 397.683 333.117 397.952 329.97 397.802C326.832 397.57 323.778 397.246 320.678 396.973C314.507 396.323 308.331 395.721 302.165 395.025L292.917 393.957C292.143 393.849 291.387 393.787 290.595 393.638C289.815 393.485 289.059 393.222 288.354 392.871C287.646 392.522 286.991 392.075 286.404 391.556C285.816 391.033 285.339 390.415 284.834 389.828C285.89 390.967 287.058 392.01 288.483 392.594C289.184 392.895 289.92 393.104 290.67 393.209C291.41 393.308 292.205 393.332 292.973 393.395L302.252 394.142C308.436 394.655 314.61 395.265 320.79 395.825C323.867 396.131 326.981 396.494 330.029 396.755C333.077 396.95 336.144 396.666 339.135 396.026L348.207 393.963L352.743 392.93L355.004 392.381C355.749 392.178 356.522 392.039 357.227 391.719Z" fill="#303D89"/>
<path d="M387.884 213.603C388.922 214.574 389.081 216.132 388.29 217.305L382.329 226.043C381.584 227.15 380.049 227.352 379.032 226.494C378.536 226.043 378.264 225.434 378.264 224.801C378.264 224.349 378.399 223.898 378.693 223.514L379.28 222.678C380.115 222.272 380.724 221.459 380.861 220.488L381.854 219.089C382.283 218.502 382.011 217.667 381.312 217.44L379.551 216.877C378.468 216.515 377.294 216.628 376.278 217.171L365.102 223.132C364.673 223.358 364.221 223.515 363.77 223.605C362.732 223.854 361.625 223.74 360.632 223.311L354.287 220.535L334.983 221.889C333.854 221.979 332.703 222.024 331.574 222.069C324.936 222.294 318.299 221.867 311.774 220.737L288.564 216.719C282.062 215.613 276.552 211.278 273.911 205.227L260.726 174.974L285.087 169.058L288.338 180.617C289.805 185.787 293.418 190.1 298.272 192.425L313.355 199.695C319.496 202.653 325.998 204.821 332.681 206.131L352.887 210.059C356.454 210.737 360.158 210.51 363.612 209.358L373.095 206.198L374.066 205.882C376.617 205.046 379.416 205.657 381.381 207.485L387.884 213.603Z" fill="#FD97A7"/>
<path d="M381.312 217.442C382.013 217.667 382.283 218.503 381.854 219.091L380.861 220.49C380.883 220.333 380.906 220.174 380.906 220.016C380.906 218.345 379.574 217.013 377.903 217.013C376.232 217.013 374.877 218.345 374.877 220.016C374.877 220.807 375.171 221.506 375.668 222.049C374.877 222.523 374.019 222.884 373.116 223.133C368.714 224.443 363.77 223.63 363.77 223.63V223.607C364.221 223.517 364.673 223.36 365.102 223.133L376.278 217.172C377.294 216.631 378.468 216.517 379.551 216.878L381.312 217.442Z" fill="#D8667C"/>
<path d="M377.904 217.013C376.233 217.013 374.879 218.345 374.879 220.016C374.879 220.806 375.173 221.506 375.669 222.049C376.211 222.658 377.024 223.041 377.904 223.041C378.401 223.041 378.875 222.929 379.281 222.68C380.117 222.274 380.726 221.461 380.862 220.49C380.885 220.333 380.907 220.173 380.907 220.016C380.907 218.345 379.574 217.013 377.904 217.013Z" fill="#3A3635"/>
<path d="M288.564 216.719C284.589 216.446 280.703 214.676 277.676 211.919C276.173 210.53 274.892 208.887 273.906 207.081C272.912 205.232 272.244 203.448 271.437 201.624C269.876 197.997 268.35 194.354 266.916 190.673C265.448 187.005 264.03 183.315 262.731 179.574C264.588 183.072 266.327 186.623 268.013 190.194C269.733 193.752 271.364 197.349 272.957 200.961C273.777 202.733 274.518 204.65 275.36 206.298C276.263 207.956 277.341 209.538 278.682 210.891C281.288 213.681 284.75 215.652 288.564 216.719Z" fill="#A34A0D"/>
<path d="M183.345 158.218H108.168V198.431H183.345V158.218Z" fill="#F99410"/>
<path d="M150.245 158.218H141.27V179.573H150.245V158.218Z" fill="#AF680B"/>
<path d="M179.184 164.353H161.972V171.457H179.184V164.353Z" fill="#FFE8CA"/>
<path d="M227.964 86.2925H145.757C145.343 86.2925 145.007 85.9565 145.007 85.5425C145.007 85.1285 145.343 84.7925 145.757 84.7925H227.964C228.378 84.7925 228.714 85.1285 228.714 85.5425C228.714 85.958 228.378 86.2925 227.964 86.2925Z" fill="#3F1085"/>
<path d="M236.482 95.8325H187.846C187.432 95.8325 187.096 95.4965 187.096 95.0825C187.096 94.6685 187.432 94.3325 187.846 94.3325H236.482C236.896 94.3325 237.232 94.6685 237.232 95.0825C237.232 95.4965 236.896 95.8325 236.482 95.8325Z" fill="#3F1085"/>
<path d="M120.691 258.268H56.502C56.088 258.268 55.752 257.932 55.752 257.518C55.752 257.104 56.088 256.768 56.502 256.768H120.691C121.105 256.768 121.441 257.104 121.441 257.518C121.441 257.932 121.105 258.268 120.691 258.268Z" fill="#3F1085"/>
<path d="M78.5054 246.416H29.8679C29.4539 246.416 29.1179 246.08 29.1179 245.666C29.1179 245.252 29.4539 244.916 29.8679 244.916H78.5039C78.9179 244.916 79.2539 245.252 79.2539 245.666C79.2554 246.082 78.9194 246.416 78.5054 246.416Z" fill="#3F1085"/>
<path d="M382.061 178.219H350.684C350.27 178.219 349.934 177.883 349.934 177.469C349.934 177.055 350.27 176.719 350.684 176.719H382.061C382.475 176.719 382.811 177.055 382.811 177.469C382.811 177.884 382.475 178.219 382.061 178.219Z" fill="#3F1085"/>
<path d="M373.459 167.126H319.042C318.628 167.126 318.292 166.79 318.292 166.376C318.292 165.962 318.628 165.626 319.042 165.626H373.459C373.873 165.626 374.209 165.962 374.209 166.376C374.209 166.79 373.875 167.126 373.459 167.126Z" fill="#3F1085"/>
<path d="M215.028 111.376H149.3C148.886 111.376 148.55 111.04 148.55 110.626C148.55 110.212 148.886 109.876 149.3 109.876H215.028C215.442 109.876 215.778 110.212 215.778 110.626C215.778 111.041 215.444 111.376 215.028 111.376Z" fill="#3F1085"/>
<path d="M87.051 270.329H21.3225C20.9085 270.329 20.5725 269.993 20.5725 269.579C20.5725 269.165 20.9085 268.829 21.3225 268.829H87.051C87.465 268.829 87.801 269.165 87.801 269.579C87.801 269.993 87.4665 270.329 87.051 270.329Z" fill="#3F1085"/>
</svg>
