<svg width="234" height="46" viewBox="0 0 234 46" fill="none" xmlns="http://www.w3.org/2000/svg">
<path d="M10.768 34.008C9.12533 34.008 7.65333 33.7413 6.352 33.208C5.05067 32.6747 4.00533 31.8853 3.216 30.84C2.448 29.7947 2.04267 28.536 2 27.064H7.824C7.90933 27.896 8.19733 28.536 8.688 28.984C9.17867 29.4107 9.81867 29.624 10.608 29.624C11.4187 29.624 12.0587 29.4427 12.528 29.08C12.9973 28.696 13.232 28.1733 13.232 27.512C13.232 26.9573 13.04 26.4987 12.656 26.136C12.2933 25.7733 11.8347 25.4747 11.28 25.24C10.7467 25.0053 9.97867 24.7387 8.976 24.44C7.52533 23.992 6.34133 23.544 5.424 23.096C4.50667 22.648 3.71733 21.9867 3.056 21.112C2.39467 20.2373 2.064 19.096 2.064 17.688C2.064 15.5973 2.82133 13.9653 4.336 12.792C5.85067 11.5973 7.824 11 10.256 11C12.7307 11 14.7253 11.5973 16.24 12.792C17.7547 13.9653 18.5653 15.608 18.672 17.72H12.752C12.7093 16.9947 12.4427 16.4293 11.952 16.024C11.4613 15.5973 10.832 15.384 10.064 15.384C9.40267 15.384 8.86933 15.5653 8.464 15.928C8.05867 16.2693 7.856 16.7707 7.856 17.432C7.856 18.1573 8.19733 18.7227 8.88 19.128C9.56267 19.5333 10.6293 19.9707 12.08 20.44C13.5307 20.9307 14.704 21.4 15.6 21.848C16.5173 22.296 17.3067 22.9467 17.968 23.8C18.6293 24.6533 18.96 25.752 18.96 27.096C18.96 28.376 18.6293 29.5387 17.968 30.584C17.328 31.6293 16.3893 32.4613 15.152 33.08C13.9147 33.6987 12.4533 34.008 10.768 34.008Z" fill="white"/>
<path d="M47.9595 15.928L43.1275 33.784H37.0795L34.2635 22.2L31.3515 33.784H25.3355L20.4715 15.928H25.9435L28.4715 28.696L31.4795 15.928H37.2715L40.3115 28.632L42.8075 15.928H47.9595Z" fill="white"/>
<path d="M66.8783 24.568C66.8783 25.08 66.8462 25.6133 66.7822 26.168H54.3983C54.4836 27.2773 54.8356 28.1307 55.4543 28.728C56.0943 29.304 56.8729 29.592 57.7902 29.592C59.1556 29.592 60.1049 29.016 60.6382 27.864H66.4622C66.1636 29.0373 65.6196 30.0933 64.8302 31.032C64.0622 31.9707 63.0916 32.7067 61.9183 33.24C60.7449 33.7733 59.4329 34.04 57.9823 34.04C56.2329 34.04 54.6756 33.6667 53.3102 32.92C51.9449 32.1733 50.8782 31.1067 50.1102 29.72C49.3422 28.3333 48.9582 26.712 48.9582 24.856C48.9582 23 49.3316 21.3787 50.0783 19.992C50.8463 18.6053 51.9129 17.5387 53.2783 16.792C54.6436 16.0453 56.2116 15.672 57.9823 15.672C59.7103 15.672 61.2463 16.0347 62.5903 16.76C63.9343 17.4853 64.9796 18.52 65.7262 19.864C66.4942 21.208 66.8783 22.776 66.8783 24.568ZM61.2783 23.128C61.2783 22.1893 60.9582 21.4427 60.3182 20.888C59.6782 20.3333 58.8783 20.056 57.9183 20.056C57.0009 20.056 56.2222 20.3227 55.5822 20.856C54.9636 21.3893 54.5796 22.1467 54.4303 23.128H61.2783Z" fill="white"/>
<path d="M86.597 24.568C86.597 25.08 86.565 25.6133 86.501 26.168H74.117C74.2023 27.2773 74.5543 28.1307 75.173 28.728C75.813 29.304 76.5917 29.592 77.509 29.592C78.8743 29.592 79.8237 29.016 80.357 27.864H86.181C85.8823 29.0373 85.3383 30.0933 84.549 31.032C83.781 31.9707 82.8103 32.7067 81.637 33.24C80.4637 33.7733 79.1517 34.04 77.701 34.04C75.9517 34.04 74.3943 33.6667 73.029 32.92C71.6637 32.1733 70.597 31.1067 69.829 29.72C69.061 28.3333 68.677 26.712 68.677 24.856C68.677 23 69.0503 21.3787 69.797 19.992C70.565 18.6053 71.6317 17.5387 72.997 16.792C74.3623 16.0453 75.9303 15.672 77.701 15.672C79.429 15.672 80.965 16.0347 82.309 16.76C83.653 17.4853 84.6983 18.52 85.445 19.864C86.213 21.208 86.597 22.776 86.597 24.568ZM80.997 23.128C80.997 22.1893 80.677 21.4427 80.037 20.888C79.397 20.3333 78.597 20.056 77.637 20.056C76.7197 20.056 75.941 20.3227 75.301 20.856C74.6823 21.3893 74.2983 22.1467 74.149 23.128H80.997Z" fill="white"/>
<path d="M99.4358 29.144V33.784H96.6517C94.6677 33.784 93.1211 33.304 92.0117 32.344C90.9024 31.3627 90.3477 29.7733 90.3477 27.576V20.472H88.1718V15.928H90.3477V11.576H95.8197V15.928H99.4037V20.472H95.8197V27.64C95.8197 28.1733 95.9478 28.5573 96.2038 28.792C96.4598 29.0267 96.8864 29.144 97.4837 29.144H99.4358Z" fill="white"/>
<path d="M109.748 34.04C108.19 34.04 106.804 33.7733 105.588 33.24C104.372 32.7067 103.412 31.9813 102.708 31.064C102.004 30.1253 101.609 29.08 101.524 27.928H106.932C106.996 28.5467 107.284 29.048 107.796 29.432C108.308 29.816 108.937 30.008 109.684 30.008C110.366 30.008 110.889 29.88 111.252 29.624C111.636 29.3467 111.828 28.9947 111.828 28.568C111.828 28.056 111.561 27.6827 111.028 27.448C110.494 27.192 109.63 26.9147 108.436 26.616C107.156 26.3173 106.089 26.008 105.236 25.688C104.382 25.3467 103.646 24.824 103.028 24.12C102.409 23.3947 102.1 22.424 102.1 21.208C102.1 20.184 102.377 19.256 102.932 18.424C103.508 17.5707 104.34 16.8987 105.428 16.408C106.537 15.9173 107.849 15.672 109.364 15.672C111.604 15.672 113.364 16.2267 114.644 17.336C115.945 18.4453 116.692 19.9173 116.884 21.752H111.828C111.742 21.1333 111.465 20.6427 110.996 20.28C110.548 19.9173 109.95 19.736 109.204 19.736C108.564 19.736 108.073 19.864 107.732 20.12C107.39 20.3547 107.22 20.6853 107.22 21.112C107.22 21.624 107.486 22.008 108.02 22.264C108.574 22.52 109.428 22.776 110.58 23.032C111.902 23.3733 112.98 23.7147 113.812 24.056C114.644 24.376 115.369 24.9093 115.988 25.656C116.628 26.3813 116.958 27.3627 116.98 28.6C116.98 29.6453 116.681 30.584 116.084 31.416C115.508 32.2267 114.665 32.8667 113.556 33.336C112.468 33.8053 111.198 34.04 109.748 34.04Z" fill="white"/>
<path d="M130.279 29.144V33.784H127.495C125.511 33.784 123.965 33.304 122.855 32.344C121.746 31.3627 121.191 29.7733 121.191 27.576V20.472H119.016V15.928H121.191V11.576H126.663V15.928H130.247V20.472H126.663V27.64C126.663 28.1733 126.792 28.5573 127.048 28.792C127.304 29.0267 127.73 29.144 128.327 29.144H130.279Z" fill="white"/>
<path d="M150.16 24.568C150.16 25.08 150.128 25.6133 150.064 26.168H137.68C137.765 27.2773 138.117 28.1307 138.736 28.728C139.376 29.304 140.154 29.592 141.072 29.592C142.437 29.592 143.386 29.016 143.919 27.864H149.743C149.445 29.0373 148.901 30.0933 148.111 31.032C147.343 31.9707 146.373 32.7067 145.199 33.24C144.026 33.7733 142.714 34.04 141.264 34.04C139.514 34.04 137.957 33.6667 136.592 32.92C135.226 32.1733 134.159 31.1067 133.391 29.72C132.623 28.3333 132.24 26.712 132.24 24.856C132.24 23 132.613 21.3787 133.359 19.992C134.127 18.6053 135.194 17.5387 136.559 16.792C137.925 16.0453 139.493 15.672 141.264 15.672C142.992 15.672 144.528 16.0347 145.872 16.76C147.216 17.4853 148.261 18.52 149.008 19.864C149.776 21.208 150.16 22.776 150.16 24.568ZM144.559 23.128C144.559 22.1893 144.24 21.4427 143.6 20.888C142.96 20.3333 142.159 20.056 141.199 20.056C140.282 20.056 139.503 20.3227 138.863 20.856C138.245 21.3893 137.861 22.1467 137.712 23.128H144.559Z" fill="white"/>
<path d="M158.518 18.904C159.158 17.9227 159.958 17.1547 160.918 16.6C161.878 16.024 162.945 15.736 164.118 15.736V21.528H162.614C161.249 21.528 160.225 21.8267 159.542 22.424C158.86 23 158.518 24.024 158.518 25.496V33.784H153.046V15.928H158.518V18.904Z" fill="white"/>
<path d="M173.998 34.04C172.44 34.04 171.054 33.7733 169.838 33.24C168.622 32.7067 167.662 31.9813 166.958 31.064C166.254 30.1253 165.859 29.08 165.774 27.928H171.182C171.246 28.5467 171.534 29.048 172.046 29.432C172.558 29.816 173.187 30.008 173.934 30.008C174.616 30.008 175.139 29.88 175.502 29.624C175.886 29.3467 176.078 28.9947 176.078 28.568C176.078 28.056 175.811 27.6827 175.278 27.448C174.744 27.192 173.88 26.9147 172.686 26.616C171.406 26.3173 170.339 26.008 169.486 25.688C168.632 25.3467 167.896 24.824 167.278 24.12C166.659 23.3947 166.35 22.424 166.35 21.208C166.35 20.184 166.627 19.256 167.182 18.424C167.758 17.5707 168.59 16.8987 169.678 16.408C170.787 15.9173 172.099 15.672 173.614 15.672C175.854 15.672 177.614 16.2267 178.894 17.336C180.195 18.4453 180.942 19.9173 181.134 21.752H176.078C175.992 21.1333 175.715 20.6427 175.246 20.28C174.798 19.9173 174.2 19.736 173.454 19.736C172.814 19.736 172.323 19.864 171.982 20.12C171.64 20.3547 171.47 20.6853 171.47 21.112C171.47 21.624 171.736 22.008 172.27 22.264C172.824 22.52 173.678 22.776 174.83 23.032C176.152 23.3733 177.23 23.7147 178.062 24.056C178.894 24.376 179.619 24.9093 180.238 25.656C180.878 26.3813 181.208 27.3627 181.23 28.6C181.23 29.6453 180.931 30.584 180.334 31.416C179.758 32.2267 178.915 32.8667 177.806 33.336C176.718 33.8053 175.448 34.04 173.998 34.04Z" fill="white"/>
</svg>
